<?xml version="1.0" encoding="iso-8859-1"?>
<!-- Generator: Adobe Illustrator 19.0.0, SVG Export Plug-In . SVG Version: 6.00 Build 0)  -->
<svg version="1.1" id="Layer_1" xmlns="http://www.w3.org/2000/svg" xmlns:xlink="http://www.w3.org/1999/xlink" x="0px" y="0px"
	 viewBox="0 0 502.008 502.008" style="enable-background:new 0 0 502.008 502.008;" xml:space="preserve">
<g>
	<g>
		<g>
			<path d="M77.372,22.676c40.259-12.767,83.95,20.952,170.989,88.126c0,0,18.969,14.528,23.54,17.854
				c4.465,3.249,10.72,2.262,13.969-2.205c3.249-4.466,2.262-10.721-2.205-13.969c-4.421-3.216-23.084-17.513-23.084-17.513
				c-43.911-33.89-78.595-60.657-107.563-76.71C120.831,0.42,95.637-4.097,71.327,3.611C51.115,10.02,32.864,24.678,19.935,44.886
				C7.822,63.819,1.565,86.019,2.769,105.79c1.885,30.927,20.638,51.978,51.451,57.756c71.888,13.479,89.572,24.875,101.523,35.393
				c17.587,15.476,19.156,53.462,17.922,73.923h-18.744c-5.522,0-10,4.478-10,10v209.146c0,5.522,4.478,10,10,10h58.287
				c5.522,0,10-4.478,10-10V282.861c0-5.522-4.478-10-10-10h-19.544c1.084-20.521,0.438-66.808-24.708-88.937
				c-14.039-12.354-34.179-25.623-111.051-40.037c-27.404-5.138-34.254-24.216-35.174-39.314
				C20.869,73.981,42.38,33.772,77.372,22.676z M203.209,292.861v189.147h-38.287V292.861H203.209z"/>
			<path d="M372.021,160.024c-6.221-1.82-12.78-4.179-19.496-7.01c-5.083-2.142-10.953,0.241-13.099,5.331
				c-2.146,5.089,0.241,10.953,5.331,13.099c7.414,3.125,14.697,5.741,21.645,7.775c0.938,0.274,1.884,0.405,2.814,0.405
				c4.326,0,8.315-2.831,9.593-7.193C380.36,167.13,377.321,161.575,372.021,160.024z"/>
			<path d="M482.782,37.969c-23.992-26.187-69.24-33.724-91.124-27.598c-30.188,8.453-59.654,37.154-75.068,73.12
				c-13.626,31.795-23.446,100.935-27.64,130.459l-0.497,3.496c-2.458,17.201-2.664,41.694-2.551,55.415h-18.978
				c-5.522,0-10,4.478-10,10v209.146c0,5.522,4.478,10,10,10h58.286c5.522,0,10-4.478,10-10V282.861c0-5.522-4.478-10-10-10h-19.3
				c-0.105-13.132,0.077-36.727,2.342-52.587l0.5-3.512c3.73-26.267,13.641-96.037,26.221-125.393
				c13.123-30.621,37.49-54.855,62.078-61.739c14.3-4.007,52.112,1.25,70.985,21.849c12.665,13.822,14.719,32.422,6.104,55.282
				c-14.61,38.772-37.385,57.818-69.627,58.225c-5.522,0.069-9.942,4.603-9.873,10.125c0.069,5.522,4.623,9.938,10.125,9.873
				c20.851-0.263,39.09-6.87,54.211-19.638c14.073-11.883,25.472-29.221,33.879-51.532
				C507.167,75.833,495.277,51.606,482.782,37.969z M315.21,292.861v189.147h-38.286V292.861H315.21z"/>
		</g>
	</g>
</g>
<g>
</g>
<g>
</g>
<g>
</g>
<g>
</g>
<g>
</g>
<g>
</g>
<g>
</g>
<g>
</g>
<g>
</g>
<g>
</g>
<g>
</g>
<g>
</g>
<g>
</g>
<g>
</g>
<g>
</g>
</svg>
