<?xml version="1.0" encoding="iso-8859-1"?>
<!-- Generator: Adobe Illustrator 19.0.0, SVG Export Plug-In . SVG Version: 6.00 Build 0)  -->
<svg version="1.1" id="Capa_1" xmlns="http://www.w3.org/2000/svg" xmlns:xlink="http://www.w3.org/1999/xlink" x="0px" y="0px"
	 viewBox="0 0 60 60" style="enable-background:new 0 0 60 60;" xml:space="preserve">
<g>
	<g>
		<path d="M52.925,22.235C52.296,17.01,47.831,13,42.5,13c-1.766,0-3.478,0.437-5.009,1.269C34.642,9.76,29.754,7,24.5,7
			c-6.838,0-12.849,4.624-14.827,11.321C4.031,19.621,0,24.644,0,30.5c0,5.55,3.737,10.467,9,12.003C9.002,47.188,12.814,51,17.5,51
			c2.387,0,4.628-0.992,6.223-2.708C26.084,51.263,29.648,53,33.5,53c4.881,0,9.338-2.891,11.36-7.279
			C45.723,45.906,46.608,46,47.5,46C54.393,46,60,40.393,60,33.5C60,28.671,57.243,24.313,52.925,22.235z M47.5,44
			c-1.005,0-1.997-0.142-2.949-0.42c-0.503-0.146-1.033,0.118-1.217,0.608C41.805,48.263,37.854,51,33.5,51
			c-3.628,0-6.951-1.835-8.89-4.908c-0.181-0.287-0.496-0.463-0.835-0.467c-0.003,0-0.007,0-0.01,0
			c-0.336,0-0.649,0.169-0.835,0.449C21.721,47.906,19.691,49,17.5,49c-3.584,0-6.5-2.916-6.5-6.5c0-0.224,0.011-0.445,0.034-0.663
			c0.051-0.506-0.286-0.97-0.782-1.077C5.47,39.717,2,35.402,2,30.5c0-5.1,3.638-9.447,8.65-10.338
			c0.387-0.068,0.698-0.357,0.794-0.738C13.003,13.286,18.372,9,24.5,9c4.864,0,9.373,2.732,11.766,7.13
			c0.135,0.249,0.369,0.429,0.645,0.495c0.273,0.064,0.564,0.013,0.798-0.147C39.122,15.511,40.779,15,42.5,15
			c4.481,0,8.208,3.5,8.484,7.968c0.023,0.379,0.259,0.711,0.608,0.859C55.485,25.476,58,29.272,58,33.5C58,39.29,53.29,44,47.5,44z
			"/>
		<path d="M35.673,38.055C34.512,38.457,31.139,39.5,29.5,39.5c-1.637,0-5.011-1.043-6.173-1.445l-0.945-0.326l-0.654,1.89
			l0.945,0.327c0.184,0.064,4.519,1.555,6.827,1.555s6.644-1.491,6.827-1.555l0.945-0.327l-0.654-1.891L35.673,38.055z"/>
		<path d="M14,25c-2.757,0-5,2.243-5,5v1h2v-1c0-1.654,1.346-3,3-3c0.393,0,0.766,0.081,1.11,0.218C14.455,27.547,14,28.219,14,29
			c0,1.103,0.897,2,2,2c0.366,0,0.705-0.106,1-0.278V31h2v-1C19,27.243,16.757,25,14,25z"/>
		<path d="M45,25c-2.757,0-5,2.243-5,5v1h2v-0.278C42.295,30.894,42.634,31,43,31c1.103,0,2-0.897,2-2
			c0-0.781-0.455-1.453-1.11-1.782C44.234,27.081,44.607,27,45,27c1.654,0,3,1.346,3,3v1h2v-1C50,27.243,47.757,25,45,25z"/>
	</g>
</g>
<g>
</g>
<g>
</g>
<g>
</g>
<g>
</g>
<g>
</g>
<g>
</g>
<g>
</g>
<g>
</g>
<g>
</g>
<g>
</g>
<g>
</g>
<g>
</g>
<g>
</g>
<g>
</g>
<g>
</g>
</svg>
